<?xml version="1.0" encoding="UTF-8"?>
<!DOCTYPE svg PUBLIC "-//W3C//DTD SVG 1.1//EN" "http://www.w3.org/Graphics/SVG/1.1/DTD/svg11.dtd">
<svg version="1.1" xmlns="http://www.w3.org/2000/svg" xmlns:xlink="http://www.w3.org/1999/xlink" width="600" height="600"  xml:space="preserve" id="logo">
    <!-- Generated by PaintCode (www.paintcodeapp.com) -->
    <defs>
        <linearGradient id="logo-gradient-gearpoly0" x1="398.12" y1="151.5" x2="202.88" y2="151.5" gradientUnits="userSpaceOnUse" >
            <stop offset="0" stop-color="rgb(43, 149, 250)" stop-opacity="1" />
            <stop offset="1" stop-color="rgb(25, 68, 144)" stop-opacity="1" />
        </linearGradient>
        <linearGradient id="logo-gradient-gearpoly1" x1="425" y1="171.58" x2="425" y2="448.42" gradientUnits="userSpaceOnUse" >
            <stop offset="0" stop-color="rgb(43, 149, 250)" stop-opacity="1" />
            <stop offset="1" stop-color="rgb(25, 68, 144)" stop-opacity="1" />
        </linearGradient>
        <linearGradient id="logo-gradient-gearpoly2" x1="182.46" y1="231.01" x2="182.46" y2="528.52" gradientUnits="userSpaceOnUse" >
            <stop offset="0" stop-color="rgb(43, 149, 250)" stop-opacity="1" />
            <stop offset="1" stop-color="rgb(25, 68, 144)" stop-opacity="1" />
        </linearGradient>
    </defs>
    <path id="logo-gearpoly0" stroke="rgb(68, 68, 68)" stroke-miterlimit="10" fill="url(#logo-gradient-gearpoly0)" d="M 357.5,151.5 L 371.79,151.5 371.91,151.49 372.17,151.47 372.56,151.42 373.08,151.33 373.73,151.19 374.51,150.99 375.4,150.71 376.41,150.35 377.53,149.89 378.75,149.33 380.06,148.65 381.46,147.85 382.94,146.91 384.49,145.84 386.1,144.61 387.76,143.23 389.46,141.69 391.18,139.98 392.92,138.1 394.67,136.03 396.4,133.79 398.12,131.36 397.97,129.17 397.65,127.81 396.8,125.78 394.18,124.38 391.62,123.15 389.14,122.09 386.74,121.19 384.43,120.43 382.22,119.81 380.12,119.32 378.13,118.95 376.27,118.68 374.53,118.51 372.91,118.42 371.43,118.4 370.09,118.44 368.89,118.54 367.82,118.66 366.9,118.81 366.12,118.98 365.47,119.14 364.96,119.3 364.59,119.43 364.35,119.52 364.24,119.57 351.46,125.97 340.81,111.19 350.91,101.09 350.99,101 351.16,100.8 351.4,100.49 351.7,100.06 352.06,99.5 352.47,98.81 352.9,97.98 353.36,97.01 353.83,95.89 354.29,94.63 354.74,93.22 355.17,91.67 355.55,89.96 355.89,88.1 356.16,86.1 356.36,83.95 356.46,81.66 356.47,79.23 356.37,76.67 356.15,73.98 355.79,71.16 355.29,68.24 353.63,66.78 352.45,66.05 350.41,65.22 347.57,66.08 344.89,67.02 342.38,68.03 340.05,69.09 337.88,70.18 335.88,71.31 334.05,72.45 332.38,73.59 330.87,74.72 329.51,75.83 328.31,76.9 327.25,77.94 326.33,78.92 325.55,79.83 324.88,80.68 324.34,81.44 323.9,82.11 323.56,82.68 323.31,83.15 323.14,83.5 323.04,83.74 323,83.85 318.49,97.41 300.5,94.5 300.5,80.21 300.49,80.09 300.47,79.83 300.42,79.44 300.33,78.92 300.19,78.27 299.99,77.49 299.71,76.6 299.35,75.59 298.89,74.47 298.33,73.25 297.65,71.94 296.85,70.54 295.91,69.06 294.84,67.51 293.61,65.9 292.23,64.24 290.69,62.54 288.98,60.82 287.1,59.08 285.03,57.33 282.79,55.6 280.36,53.88 278.17,54.03 276.81,54.35 274.78,55.2 273.38,57.82 272.15,60.38 271.09,62.86 270.19,65.26 269.43,67.57 268.81,69.78 268.32,71.88 267.95,73.87 267.68,75.73 267.51,77.47 267.42,79.09 267.4,80.57 267.44,81.91 267.54,83.11 267.66,84.18 267.81,85.1 267.98,85.88 268.14,86.53 268.3,87.04 268.43,87.41 268.52,87.65 268.57,87.76 274.97,100.54 260.19,111.19 250.09,101.09 250,101.01 249.8,100.84 249.49,100.6 249.06,100.3 248.5,99.94 247.81,99.53 246.98,99.1 246.01,98.64 244.89,98.17 243.63,97.71 242.22,97.26 240.67,96.83 238.96,96.45 237.1,96.11 235.1,95.84 232.95,95.64 230.66,95.54 228.23,95.53 225.67,95.63 222.98,95.85 220.16,96.21 217.24,96.71 215.78,98.37 215.05,99.55 214.22,101.59 215.08,104.43 216.02,107.11 217.03,109.62 218.09,111.95 219.18,114.12 220.31,116.12 221.45,117.95 222.59,119.62 223.72,121.13 224.83,122.49 225.9,123.69 226.94,124.75 227.92,125.67 228.83,126.45 229.68,127.12 230.44,127.66 231.11,128.1 231.68,128.44 232.15,128.69 232.5,128.86 232.74,128.96 232.85,129 246.41,133.51 243.5,151.5 229.21,151.5 229.09,151.51 228.83,151.53 228.44,151.58 227.92,151.67 227.27,151.81 226.49,152.01 225.6,152.29 224.59,152.65 223.47,153.11 222.25,153.67 220.94,154.35 219.54,155.15 218.06,156.09 216.51,157.16 214.9,158.39 213.24,159.77 211.54,161.31 209.82,163.02 208.08,164.9 206.33,166.97 204.6,169.21 202.88,171.64 203.03,173.83 203.35,175.19 204.2,177.22 206.82,178.62 209.38,179.85 211.86,180.91 214.26,181.81 216.57,182.57 218.78,183.19 220.88,183.68 222.87,184.05 224.73,184.32 226.47,184.49 228.09,184.58 229.57,184.6 230.91,184.56 232.11,184.46 233.18,184.34 234.1,184.19 234.88,184.02 235.53,183.86 236.04,183.7 236.41,183.57 236.65,183.48 236.76,183.43 249.54,177.03 260.19,191.81 250.09,201.91 250.01,202 249.84,202.2 249.6,202.51 249.3,202.94 248.94,203.5 248.53,204.19 248.1,205.02 247.64,205.99 247.17,207.11 246.71,208.37 246.26,209.78 245.83,211.33 245.45,213.04 245.11,214.9 244.84,216.9 244.64,219.05 244.54,221.34 244.53,223.77 244.63,226.33 244.85,229.02 245.21,231.84 245.71,234.76 247.37,236.22 248.55,236.95 250.59,237.78 253.43,236.92 256.11,235.98 258.62,234.97 260.95,233.91 263.12,232.82 265.12,231.69 266.95,230.55 268.62,229.41 270.13,228.28 271.49,227.17 272.69,226.1 273.75,225.06 274.67,224.08 275.45,223.17 276.12,222.32 276.66,221.56 277.1,220.89 277.44,220.32 277.69,219.85 277.86,219.5 277.96,219.26 278,219.15 282.51,205.59 300.5,208.5 300.5,222.79 300.51,222.91 300.53,223.17 300.58,223.56 300.67,224.08 300.81,224.73 301.01,225.51 301.29,226.4 301.65,227.41 302.11,228.53 302.67,229.75 303.35,231.06 304.15,232.46 305.09,233.94 306.16,235.49 307.39,237.1 308.77,238.76 310.31,240.46 312.02,242.18 313.9,243.92 315.97,245.67 318.21,247.4 320.64,249.12 322.83,248.97 324.19,248.65 326.22,247.8 327.62,245.18 328.85,242.62 329.91,240.14 330.81,237.74 331.57,235.43 332.19,233.22 332.68,231.12 333.05,229.13 333.32,227.27 333.49,225.53 333.58,223.91 333.6,222.43 333.56,221.09 333.46,219.89 333.34,218.82 333.19,217.9 333.02,217.12 332.86,216.47 332.7,215.96 332.57,215.59 332.48,215.35 332.43,215.24 326.03,202.46 340.81,191.81 350.91,201.91 351,201.99 351.2,202.16 351.51,202.4 351.94,202.7 352.5,203.06 353.19,203.47 354.02,203.9 354.99,204.36 356.11,204.83 357.37,205.29 358.77,205.74 360.33,206.17 362.04,206.55 363.9,206.89 365.9,207.16 368.05,207.36 370.34,207.46 372.77,207.47 375.33,207.37 378.02,207.15 380.84,206.79 383.76,206.29 385.22,204.63 385.95,203.45 386.78,201.41 385.92,198.57 384.98,195.89 383.97,193.38 382.91,191.05 381.82,188.88 380.69,186.88 379.55,185.05 378.41,183.38 377.28,181.87 376.17,180.51 375.1,179.31 374.06,178.25 373.08,177.33 372.17,176.55 371.32,175.88 370.56,175.34 369.89,174.9 369.32,174.56 368.85,174.31 368.5,174.14 368.26,174.04 368.15,174 354.59,169.49 357.5,151.5 Z M 357.5,151.5" />
    <path id="logo-gearpoly1" stroke="rgb(68, 68, 68)" stroke-miterlimit="10" fill="url(#logo-gradient-gearpoly1)" d="M 522,310 L 531.94,310 532.04,310 532.23,309.98 532.51,309.96 532.87,309.91 533.33,309.85 533.87,309.75 534.5,309.62 535.21,309.45 536.01,309.23 536.88,308.97 537.84,308.65 538.86,308.27 539.96,307.83 541.13,307.32 542.37,306.74 543.67,306.08 545.03,305.34 546.44,304.52 547.91,303.61 549.43,302.6 550.99,301.5 552.59,300.3 554.22,299 555.89,297.6 557.58,296.08 559.29,294.46 561.02,292.72 562.76,290.86 563.42,289.06 562.8,285.26 561.59,283.76 559.34,282.56 557.15,281.47 555,280.49 552.91,279.6 550.88,278.8 548.91,278.1 547.01,277.48 545.18,276.94 543.42,276.47 541.74,276.08 540.14,275.76 538.61,275.5 537.17,275.3 535.81,275.14 534.54,275.04 533.36,274.98 532.26,274.95 531.26,274.95 530.34,274.98 529.52,275.04 528.79,275.1 528.16,275.18 527.61,275.26 527.16,275.35 526.79,275.42 526.52,275.49 526.34,275.54 526.24,275.57 516.83,278.77 509,261.5 517.61,256.53 517.69,256.48 517.85,256.37 518.08,256.21 518.38,255.99 518.74,255.7 519.16,255.35 519.64,254.92 520.17,254.41 520.75,253.83 521.38,253.16 522.04,252.41 522.74,251.57 523.47,250.64 524.23,249.61 525.01,248.49 525.81,247.27 526.62,245.95 527.43,244.53 528.25,243.01 529.06,241.38 529.86,239.65 530.65,237.81 531.41,235.87 532.15,233.81 532.86,231.66 533.53,229.39 534.16,227.02 534.74,224.55 534.41,222.65 531.96,219.67 530.17,218.98 527.63,219.07 525.18,219.22 522.83,219.44 520.57,219.71 518.42,220.04 516.36,220.41 514.41,220.83 512.55,221.28 510.8,221.75 509.14,222.26 507.59,222.78 506.14,223.32 504.79,223.86 503.54,224.41 502.38,224.95 501.33,225.49 500.37,226.01 499.5,226.52 498.72,227 498.04,227.46 497.44,227.88 496.93,228.27 496.49,228.61 496.14,228.91 495.87,229.16 495.66,229.35 495.53,229.49 495.46,229.56 488.91,237.03 473.5,226 478.47,217.39 478.52,217.3 478.6,217.13 478.72,216.88 478.86,216.54 479.03,216.11 479.22,215.59 479.42,214.98 479.63,214.27 479.84,213.48 480.05,212.59 480.25,211.6 480.43,210.53 480.6,209.35 480.74,208.09 480.86,206.72 480.94,205.27 480.98,203.72 480.97,202.09 480.92,200.36 480.81,198.54 480.64,196.64 480.4,194.66 480.09,192.59 479.7,190.44 479.24,188.22 478.69,185.93 478.04,183.56 477.31,181.13 476.07,179.65 472.47,178.29 470.57,178.59 468.41,179.94 466.37,181.29 464.44,182.66 462.63,184.02 460.92,185.38 459.33,186.73 457.84,188.07 456.46,189.39 455.18,190.68 454,191.94 452.92,193.17 451.93,194.36 451.03,195.51 450.22,196.61 449.49,197.66 448.85,198.65 448.28,199.58 447.78,200.45 447.35,201.26 446.98,202 446.68,202.66 446.42,203.26 446.22,203.77 446.07,204.2 445.95,204.56 445.87,204.82 445.82,205.01 445.8,205.11 443.87,214.85 425,213 425,203.06 425,202.96 424.98,202.77 424.96,202.49 424.91,202.13 424.85,201.67 424.75,201.13 424.62,200.5 424.45,199.79 424.23,198.99 423.97,198.12 423.65,197.16 423.27,196.14 422.83,195.04 422.32,193.87 421.74,192.63 421.08,191.33 420.34,189.97 419.52,188.56 418.61,187.09 417.6,185.57 416.5,184.01 415.3,182.41 414,180.78 412.6,179.11 411.08,177.42 409.46,175.71 407.72,173.98 405.86,172.24 404.06,171.58 400.26,172.2 398.76,173.41 397.56,175.66 396.47,177.85 395.49,180 394.6,182.09 393.8,184.12 393.1,186.09 392.48,187.99 391.94,189.82 391.47,191.58 391.08,193.26 390.76,194.86 390.5,196.39 390.3,197.83 390.14,199.19 390.04,200.46 389.98,201.64 389.95,202.74 389.95,203.74 389.98,204.66 390.04,205.48 390.1,206.21 390.18,206.84 390.26,207.39 390.35,207.84 390.42,208.21 390.49,208.48 390.54,208.66 390.57,208.76 393.77,218.17 376.5,226 371.53,217.39 371.48,217.31 371.37,217.15 371.21,216.92 370.99,216.62 370.7,216.26 370.35,215.84 369.92,215.36 369.41,214.83 368.83,214.25 368.16,213.62 367.41,212.96 366.57,212.26 365.64,211.53 364.61,210.77 363.49,209.99 362.27,209.19 360.95,208.38 359.53,207.57 358.01,206.75 356.38,205.94 354.65,205.14 352.81,204.35 350.87,203.59 348.81,202.85 346.66,202.14 344.39,201.47 342.02,200.84 339.55,200.26 337.65,200.59 334.67,203.04 333.98,204.83 334.07,207.37 334.22,209.82 334.44,212.17 334.71,214.43 335.04,216.58 335.41,218.64 335.83,220.59 336.28,222.45 336.75,224.2 337.26,225.86 337.78,227.41 338.32,228.86 338.86,230.21 339.41,231.46 339.95,232.62 340.49,233.67 341.01,234.63 341.52,235.5 342,236.28 342.46,236.96 342.88,237.56 343.27,238.07 343.61,238.51 343.91,238.86 344.16,239.13 344.35,239.34 344.49,239.47 344.56,239.54 352.03,246.09 341,261.5 332.39,256.53 332.3,256.48 332.13,256.4 331.88,256.28 331.54,256.14 331.11,255.97 330.59,255.78 329.98,255.58 329.27,255.37 328.48,255.16 327.59,254.95 326.6,254.75 325.53,254.57 324.35,254.4 323.09,254.26 321.72,254.14 320.27,254.06 318.72,254.02 317.09,254.03 315.36,254.08 313.54,254.19 311.64,254.36 309.66,254.6 307.59,254.91 305.44,255.3 303.22,255.76 300.93,256.31 298.56,256.96 296.13,257.69 294.65,258.93 293.29,262.53 293.59,264.43 294.94,266.59 296.29,268.63 297.66,270.56 299.02,272.37 300.38,274.08 301.73,275.67 303.07,277.16 304.39,278.54 305.68,279.82 306.94,281 308.17,282.08 309.36,283.07 310.51,283.97 311.61,284.78 312.66,285.51 313.65,286.15 314.58,286.72 315.45,287.22 316.26,287.65 317,288.02 317.66,288.33 318.26,288.58 318.77,288.78 319.2,288.93 319.56,289.05 319.82,289.13 320.01,289.18 320.11,289.2 329.85,291.13 328,310 318.06,310 317.96,310 317.77,310.02 317.49,310.04 317.13,310.09 316.67,310.15 316.13,310.25 315.5,310.38 314.79,310.55 313.99,310.77 313.12,311.03 312.16,311.35 311.14,311.73 310.04,312.17 308.87,312.68 307.63,313.26 306.33,313.92 304.97,314.66 303.56,315.48 302.09,316.39 300.57,317.4 299.01,318.5 297.41,319.7 295.78,321 294.11,322.4 292.42,323.92 290.71,325.54 288.98,327.28 287.24,329.14 286.58,330.94 287.2,334.74 288.41,336.24 290.66,337.44 292.85,338.53 295,339.52 297.09,340.4 299.12,341.2 301.09,341.9 302.99,342.52 304.82,343.06 306.58,343.53 308.26,343.92 309.86,344.24 311.39,344.5 312.83,344.7 314.19,344.86 315.46,344.96 316.64,345.02 317.74,345.05 318.74,345.05 319.66,345.02 320.48,344.96 321.21,344.9 321.84,344.82 322.39,344.74 322.84,344.65 323.21,344.58 323.48,344.51 323.66,344.46 323.76,344.43 333.17,341.23 341,358.5 332.39,363.47 332.31,363.52 332.15,363.63 331.92,363.79 331.62,364.01 331.26,364.3 330.84,364.65 330.36,365.08 329.83,365.59 329.25,366.17 328.62,366.84 327.96,367.59 327.26,368.43 326.53,369.36 325.77,370.39 324.99,371.51 324.19,372.73 323.38,374.05 322.57,375.47 321.75,376.99 320.94,378.62 320.14,380.35 319.35,382.19 318.59,384.14 317.85,386.19 317.14,388.34 316.47,390.61 315.84,392.98 315.26,395.45 315.59,397.35 318.04,400.33 319.83,401.02 322.37,400.93 324.82,400.78 327.17,400.56 329.43,400.29 331.58,399.96 333.64,399.59 335.59,399.17 337.45,398.72 339.2,398.25 340.86,397.74 342.41,397.22 343.86,396.68 345.21,396.14 346.46,395.59 347.62,395.05 348.67,394.51 349.63,393.99 350.5,393.48 351.28,393 351.96,392.54 352.56,392.12 353.07,391.73 353.51,391.39 353.86,391.09 354.13,390.84 354.34,390.65 354.47,390.51 354.54,390.44 361.09,382.97 376.5,394 371.53,402.61 371.48,402.7 371.4,402.87 371.28,403.12 371.14,403.46 370.97,403.89 370.78,404.41 370.58,405.02 370.37,405.73 370.16,406.52 369.95,407.41 369.75,408.4 369.57,409.47 369.4,410.65 369.26,411.91 369.14,413.28 369.06,414.73 369.02,416.28 369.03,417.91 369.08,419.64 369.19,421.46 369.36,423.36 369.6,425.34 369.91,427.41 370.3,429.56 370.76,431.78 371.31,434.07 371.96,436.44 372.69,438.87 373.93,440.35 377.53,441.71 379.43,441.41 381.59,440.06 383.63,438.71 385.56,437.34 387.37,435.98 389.08,434.62 390.67,433.27 392.16,431.93 393.54,430.61 394.82,429.32 396,428.06 397.08,426.83 398.07,425.64 398.97,424.49 399.78,423.39 400.51,422.34 401.15,421.35 401.72,420.42 402.22,419.55 402.65,418.74 403.02,418 403.33,417.34 403.58,416.74 403.78,416.23 403.93,415.8 404.05,415.44 404.13,415.18 404.18,414.99 404.2,414.89 406.13,405.15 425,407 425,416.94 425,417.04 425.02,417.23 425.04,417.51 425.09,417.87 425.15,418.33 425.25,418.87 425.38,419.5 425.55,420.21 425.77,421.01 426.03,421.88 426.35,422.84 426.73,423.86 427.17,424.96 427.68,426.13 428.26,427.37 428.92,428.67 429.66,430.03 430.48,431.44 431.39,432.91 432.4,434.43 433.5,435.99 434.7,437.59 436,439.22 437.4,440.89 438.92,442.58 440.54,444.29 442.28,446.02 444.14,447.76 445.94,448.42 449.74,447.8 451.24,446.59 452.44,444.34 453.53,442.15 454.51,440 455.4,437.91 456.2,435.88 456.9,433.91 457.52,432.01 458.06,430.18 458.53,428.42 458.92,426.74 459.24,425.14 459.5,423.61 459.7,422.17 459.86,420.81 459.96,419.54 460.02,418.36 460.05,417.26 460.05,416.26 460.02,415.34 459.96,414.52 459.9,413.79 459.82,413.16 459.74,412.61 459.65,412.16 459.58,411.79 459.51,411.52 459.46,411.34 459.43,411.24 456.23,401.83 473.5,394 478.47,402.61 478.52,402.69 478.63,402.85 478.79,403.08 479.01,403.38 479.3,403.74 479.65,404.16 480.08,404.64 480.59,405.17 481.17,405.75 481.84,406.38 482.59,407.04 483.43,407.74 484.36,408.47 485.39,409.23 486.51,410.01 487.73,410.81 489.05,411.62 490.47,412.43 491.99,413.25 493.62,414.06 495.35,414.86 497.19,415.65 499.13,416.41 501.19,417.15 503.34,417.86 505.61,418.53 507.98,419.16 510.45,419.74 512.35,419.41 515.33,416.96 516.02,415.17 515.93,412.63 515.78,410.18 515.56,407.83 515.29,405.57 514.96,403.42 514.59,401.36 514.17,399.41 513.72,397.55 513.25,395.8 512.74,394.14 512.22,392.59 511.68,391.14 511.14,389.79 510.59,388.54 510.05,387.38 509.51,386.33 508.99,385.37 508.48,384.5 508,383.72 507.54,383.04 507.12,382.44 506.73,381.93 506.39,381.49 506.09,381.14 505.84,380.87 505.65,380.66 505.51,380.53 505.44,380.46 497.97,373.91 509,358.5 517.61,363.47 517.7,363.52 517.87,363.6 518.12,363.72 518.46,363.86 518.89,364.03 519.41,364.22 520.02,364.42 520.73,364.63 521.52,364.84 522.41,365.05 523.4,365.25 524.47,365.43 525.65,365.6 526.91,365.74 528.28,365.86 529.73,365.94 531.28,365.98 532.91,365.97 534.64,365.92 536.46,365.81 538.36,365.64 540.34,365.4 542.41,365.09 544.56,364.7 546.78,364.24 549.07,363.69 551.44,363.04 553.87,362.31 555.35,361.07 556.71,357.47 556.41,355.57 555.06,353.41 553.71,351.37 552.34,349.44 550.98,347.63 549.62,345.92 548.27,344.33 546.93,342.84 545.61,341.46 544.32,340.18 543.06,339 541.83,337.92 540.64,336.93 539.49,336.03 538.39,335.22 537.34,334.49 536.35,333.85 535.42,333.28 534.55,332.78 533.74,332.35 533,331.98 532.34,331.68 531.74,331.42 531.23,331.22 530.8,331.07 530.44,330.95 530.18,330.87 529.99,330.82 529.89,330.8 520.15,328.87 522,310 Z M 522,310" />
    <path id="logo-gearpoly2" stroke="rgb(68, 68, 68)" stroke-miterlimit="10" fill="url(#logo-gradient-gearpoly2)" d="M 290,381 L 298.85,381 298.94,381 299.12,380.99 299.39,380.96 299.73,380.93 300.16,380.87 300.66,380.78 301.25,380.67 301.91,380.52 302.65,380.33 303.47,380.1 304.36,379.83 305.32,379.5 306.35,379.12 307.45,378.69 308.61,378.19 309.83,377.62 311.12,376.98 312.46,376.27 313.85,375.49 315.29,374.62 316.78,373.67 318.31,372.63 319.88,371.51 321.49,370.29 323.13,368.97 324.8,367.56 326.49,366.05 328.2,364.44 329.92,362.72 331.65,360.9 330.57,354.1 328.37,352.9 326.19,351.81 324.07,350.8 321.99,349.89 319.97,349.06 318.01,348.32 316.1,347.66 314.26,347.08 312.48,346.57 310.77,346.12 309.13,345.75 307.56,345.43 306.07,345.17 304.65,344.96 303.31,344.8 302.05,344.68 300.88,344.61 299.78,344.56 298.76,344.55 297.83,344.56 296.99,344.6 296.22,344.65 295.55,344.72 294.95,344.79 294.45,344.87 294.02,344.94 293.68,345.01 293.43,345.07 293.25,345.12 293.16,345.14 284.75,347.88 277.74,331.27 285.58,327.16 285.66,327.11 285.82,327.02 286.04,326.88 286.32,326.69 286.67,326.44 287.08,326.13 287.55,325.75 288.07,325.31 288.64,324.8 289.26,324.22 289.92,323.56 290.62,322.83 291.35,322.01 292.12,321.12 292.91,320.13 293.73,319.06 294.58,317.9 295.43,316.65 296.3,315.31 297.17,313.87 298.05,312.34 298.92,310.71 299.79,308.98 300.65,307.15 301.49,305.23 302.31,303.21 303.11,301.08 303.87,298.86 304.6,296.54 305.28,294.12 301.17,288.61 298.66,288.57 296.23,288.6 293.88,288.7 291.61,288.86 289.44,289.07 287.36,289.33 285.36,289.63 283.46,289.96 281.65,290.34 279.93,290.74 278.3,291.17 276.76,291.62 275.32,292.08 273.97,292.55 272.71,293.03 271.54,293.52 270.46,293.99 269.47,294.47 268.56,294.93 267.75,295.37 267.01,295.8 266.36,296.2 265.79,296.57 265.3,296.91 264.89,297.21 264.55,297.48 264.28,297.7 264.08,297.87 263.95,297.99 263.88,298.06 257.7,304.39 243.78,292.94 248.81,285.66 248.86,285.58 248.95,285.42 249.08,285.2 249.25,284.89 249.44,284.51 249.66,284.04 249.9,283.49 250.15,282.86 250.42,282.15 250.7,281.35 250.98,280.46 251.26,279.48 251.53,278.42 251.79,277.27 252.04,276.03 252.27,274.7 252.47,273.28 252.65,271.77 252.79,270.18 252.9,268.5 252.96,266.74 252.98,264.89 252.95,262.95 252.86,260.94 252.71,258.84 252.49,256.67 252.21,254.42 251.85,252.1 251.42,249.7 250.9,247.25 244.69,244.27 242.46,245.41 240.32,246.57 238.28,247.75 236.35,248.94 234.53,250.13 232.8,251.33 231.17,252.52 229.65,253.71 228.21,254.88 226.88,256.03 225.64,257.17 224.49,258.28 223.42,259.36 222.45,260.41 221.55,261.42 220.74,262.39 220.01,263.32 219.35,264.2 218.76,265.02 218.25,265.8 217.79,266.51 217.4,267.17 217.07,267.77 216.8,268.3 216.57,268.76 216.39,269.15 216.26,269.47 216.16,269.71 216.1,269.88 216.07,269.97 213.54,278.45 195.9,274.78 196.96,266 196.97,265.9 196.98,265.72 196.99,265.46 197,265.11 196.99,264.68 196.97,264.17 196.92,263.57 196.86,262.9 196.76,262.14 196.63,261.3 196.47,260.38 196.26,259.39 196.01,258.32 195.7,257.18 195.35,255.97 194.93,254.68 194.45,253.33 193.91,251.92 193.3,250.44 192.61,248.9 191.85,247.31 191,245.67 190.07,243.97 189.06,242.23 187.95,240.44 186.75,238.62 185.46,236.76 184.06,234.86 182.57,232.94 180.97,231.01 174.09,231.27 172.63,233.31 171.28,235.33 170.03,237.32 168.87,239.27 167.81,241.18 166.83,243.04 165.95,244.85 165.15,246.61 164.42,248.31 163.78,249.96 163.21,251.54 162.7,253.06 162.26,254.51 161.89,255.89 161.57,257.2 161.3,258.44 161.08,259.6 160.9,260.68 160.77,261.69 160.67,262.61 160.61,263.46 160.57,264.22 160.55,264.9 160.55,265.5 160.56,266.01 160.59,266.44 160.62,266.79 160.64,267.05 160.67,267.23 160.68,267.32 162.39,276 145.06,280.95 141.92,272.68 141.88,272.59 141.81,272.43 141.7,272.19 141.54,271.88 141.33,271.5 141.07,271.06 140.76,270.55 140.38,269.98 139.95,269.36 139.44,268.68 138.87,267.94 138.23,267.16 137.51,266.33 136.71,265.46 135.83,264.55 134.86,263.61 133.81,262.63 132.67,261.63 131.44,260.61 130.12,259.57 128.71,258.51 127.19,257.45 125.58,256.38 123.87,255.31 122.06,254.24 120.15,253.18 118.14,252.14 116.03,251.11 113.81,250.1 111.5,249.14 105.52,252.56 105.18,255.04 104.93,257.46 104.74,259.81 104.62,262.07 104.57,264.25 104.57,266.35 104.63,268.37 104.74,270.3 104.89,272.14 105.08,273.9 105.31,275.57 105.57,277.15 105.85,278.63 106.16,280.03 106.49,281.34 106.83,282.56 107.17,283.69 107.52,284.73 107.87,285.68 108.21,286.55 108.55,287.33 108.87,288.02 109.17,288.63 109.44,289.16 109.7,289.61 109.92,289.98 110.1,290.27 110.25,290.49 110.35,290.64 110.41,290.71 115.96,297.61 102.91,310.05 96.29,304.18 96.21,304.12 96.07,304.01 95.86,303.85 95.58,303.65 95.22,303.41 94.78,303.14 94.27,302.84 93.67,302.51 93,302.15 92.23,301.78 91.38,301.4 90.45,301.01 89.43,300.61 88.31,300.21 87.11,299.81 85.82,299.42 84.44,299.05 82.96,298.69 81.4,298.36 79.75,298.05 78,297.78 76.17,297.54 74.25,297.34 72.23,297.18 70.14,297.08 67.95,297.03 65.69,297.04 63.34,297.11 60.91,297.25 58.41,297.47 54.71,303.28 55.56,305.63 56.46,307.9 57.38,310.06 58.33,312.12 59.3,314.08 60.28,315.93 61.27,317.69 62.26,319.35 63.25,320.91 64.23,322.38 65.21,323.75 66.17,325.03 67.12,326.21 68.04,327.31 68.94,328.31 69.8,329.24 70.63,330.08 71.43,330.84 72.18,331.52 72.89,332.12 73.54,332.66 74.15,333.13 74.7,333.53 75.19,333.86 75.62,334.14 75.99,334.37 76.29,334.54 76.52,334.67 76.68,334.75 76.77,334.79 84.88,338.32 79.11,355.39 70.52,353.28 70.42,353.26 70.25,353.22 69.99,353.18 69.64,353.14 69.22,353.09 68.7,353.05 68.11,353.02 67.43,353.01 66.66,353.01 65.82,353.04 64.89,353.09 63.88,353.18 62.78,353.3 61.61,353.46 60.37,353.67 59.04,353.93 57.64,354.24 56.17,354.61 54.63,355.04 53.03,355.54 51.35,356.1 49.62,356.74 47.82,357.46 45.97,358.26 44.06,359.14 42.11,360.11 40.1,361.17 38.06,362.33 35.97,363.58 33.86,364.94 33.28,371.8 35.13,373.49 36.98,375.08 38.8,376.56 40.6,377.94 42.37,379.23 44.1,380.42 45.79,381.52 47.44,382.52 49.04,383.45 50.6,384.29 52.1,385.05 53.54,385.73 54.93,386.34 56.26,386.88 57.52,387.36 58.71,387.77 59.84,388.13 60.9,388.43 61.88,388.69 62.79,388.9 63.62,389.06 64.37,389.19 65.04,389.29 65.63,389.37 66.15,389.41 66.58,389.44 66.92,389.45 67.18,389.46 67.36,389.45 67.46,389.45 76.29,388.81 79.11,406.61 70.52,408.72 70.43,408.75 70.25,408.8 70,408.89 69.68,409.01 69.28,409.17 68.81,409.37 68.27,409.62 67.66,409.93 66.98,410.28 66.24,410.7 65.45,411.18 64.59,411.73 63.68,412.34 62.72,413.03 61.71,413.79 60.66,414.64 59.57,415.56 58.44,416.57 57.27,417.67 56.08,418.86 54.86,420.13 53.62,421.51 52.37,422.98 51.1,424.54 49.82,426.21 48.54,427.98 47.26,429.85 45.98,431.83 44.72,433.91 43.48,436.09 46.16,442.43 48.58,443.07 50.95,443.61 53.26,444.08 55.49,444.47 57.65,444.79 59.74,445.04 61.75,445.22 63.67,445.35 65.52,445.42 67.29,445.44 68.97,445.42 70.57,445.35 72.08,445.24 73.51,445.11 74.85,444.94 76.1,444.75 77.26,444.55 78.34,444.33 79.32,444.09 80.22,443.86 81.04,443.62 81.77,443.39 82.41,443.16 82.97,442.95 83.44,442.75 83.83,442.58 84.15,442.43 84.38,442.31 84.54,442.23 84.62,442.18 92.14,437.5 102.91,451.95 96.29,457.82 96.22,457.89 96.09,458.01 95.91,458.21 95.68,458.46 95.4,458.79 95.07,459.19 94.71,459.66 94.31,460.21 93.88,460.84 93.42,461.56 92.94,462.35 92.43,463.23 91.91,464.2 91.38,465.26 90.85,466.4 90.31,467.64 89.77,468.97 89.24,470.38 88.72,471.9 88.21,473.5 87.73,475.2 87.27,476.99 86.84,478.88 86.44,480.86 86.09,482.93 85.77,485.09 85.51,487.34 85.3,489.68 85.14,492.11 85.06,494.61 90.38,498.99 92.82,498.43 95.18,497.81 97.43,497.15 99.59,496.46 101.65,495.73 103.62,494.99 105.48,494.22 107.25,493.43 108.92,492.64 110.49,491.83 111.97,491.03 113.35,490.23 114.64,489.43 115.84,488.65 116.95,487.88 117.97,487.13 118.9,486.41 119.75,485.71 120.52,485.05 121.21,484.42 121.82,483.83 122.35,483.29 122.82,482.79 123.21,482.34 123.54,481.95 123.81,481.61 124.02,481.33 124.17,481.12 124.27,480.97 124.32,480.89 128.8,473.26 145.06,481.05 141.92,489.32 141.89,489.41 141.84,489.58 141.76,489.84 141.68,490.17 141.58,490.59 141.48,491.09 141.38,491.68 141.28,492.36 141.19,493.12 141.12,493.96 141.06,494.89 141.02,495.9 141.01,497 141.03,498.18 141.09,499.45 141.19,500.79 141.33,502.22 141.52,503.72 141.76,505.3 142.06,506.96 142.42,508.69 142.84,510.49 143.34,512.36 143.91,514.29 144.55,516.29 145.28,518.35 146.09,520.46 147,522.64 147.99,524.86 149.08,527.11 155.82,528.52 157.72,526.88 159.52,525.24 161.21,523.61 162.8,521.99 164.29,520.4 165.68,518.82 166.97,517.27 168.17,515.76 169.28,514.28 170.3,512.84 171.24,511.44 172.09,510.08 172.86,508.78 173.56,507.53 174.18,506.33 174.74,505.2 175.23,504.12 175.66,503.11 176.03,502.17 176.35,501.29 176.61,500.49 176.84,499.75 177.02,499.1 177.16,498.52 177.27,498.02 177.35,497.59 177.4,497.25 177.44,496.99 177.45,496.81 177.46,496.72 177.89,487.88 195.9,487.22 196.96,496 196.98,496.1 197.01,496.28 197.06,496.53 197.14,496.87 197.26,497.29 197.4,497.78 197.58,498.35 197.81,498.99 198.09,499.7 198.41,500.48 198.79,501.33 199.23,502.25 199.73,503.23 200.3,504.26 200.94,505.36 201.65,506.5 202.43,507.7 203.3,508.94 204.25,510.23 205.28,511.56 206.4,512.92 207.62,514.32 208.92,515.74 210.33,517.19 211.83,518.66 213.43,520.14 215.13,521.64 216.94,523.14 218.85,524.65 220.87,526.14 227.49,524.25 228.41,521.92 229.24,519.63 229.98,517.4 230.64,515.23 231.21,513.12 231.71,511.08 232.14,509.11 232.5,507.21 232.79,505.39 233.02,503.64 233.2,501.96 233.33,500.37 233.41,498.85 233.44,497.42 233.44,496.07 233.4,494.81 233.34,493.63 233.25,492.53 233.14,491.53 233.01,490.6 232.87,489.77 232.73,489.02 232.58,488.35 232.44,487.77 232.3,487.28 232.18,486.87 232.07,486.54 231.98,486.29 231.91,486.12 231.87,486.03 228.14,478.01 243.78,469.06 248.81,476.34 248.87,476.42 248.98,476.56 249.14,476.76 249.37,477.02 249.66,477.34 250.02,477.71 250.45,478.13 250.95,478.59 251.52,479.09 252.17,479.64 252.9,480.21 253.72,480.82 254.62,481.45 255.6,482.11 256.67,482.78 257.83,483.46 259.09,484.16 260.43,484.85 261.87,485.55 263.4,486.25 265.03,486.93 266.75,487.61 268.57,488.26 270.49,488.89 272.5,489.49 274.61,490.06 276.81,490.6 279.11,491.09 281.5,491.53 283.98,491.92 288.96,487.17 288.7,484.67 288.37,482.26 287.99,479.94 287.56,477.72 287.09,475.58 286.59,473.55 286.05,471.6 285.48,469.75 284.89,468 284.29,466.34 283.66,464.78 283.04,463.31 282.4,461.93 281.77,460.65 281.14,459.45 280.52,458.35 279.91,457.33 279.32,456.41 278.76,455.57 278.22,454.81 277.71,454.13 277.23,453.53 276.79,453.01 276.4,452.57 276.04,452.19 275.74,451.89 275.49,451.65 275.3,451.47 275.16,451.35 275.09,451.29 268.05,445.92 277.74,430.73 285.58,434.84 285.67,434.88 285.83,434.95 286.07,435.06 286.39,435.18 286.8,435.33 287.29,435.49 287.86,435.66 288.52,435.84 289.26,436.02 290.09,436.19 291,436.36 292.01,436.52 293.09,436.66 294.27,436.79 295.53,436.88 296.88,436.95 298.31,436.98 299.83,436.97 301.42,436.93 303.1,436.83 304.86,436.68 306.7,436.47 308.62,436.21 310.61,435.87 312.67,435.47 314.8,435 317,434.45 319.26,433.81 321.59,433.1 323.96,432.28 326.17,425.76 324.77,423.68 323.36,421.7 321.94,419.82 320.53,418.05 319.12,416.38 317.73,414.81 316.35,413.34 314.99,411.96 313.65,410.68 312.34,409.5 311.07,408.4 309.83,407.39 308.63,406.47 307.47,405.62 306.36,404.86 305.3,404.17 304.29,403.55 303.33,403.01 302.44,402.52 301.61,402.1 300.84,401.74 300.15,401.43 299.52,401.18 298.96,400.97 298.47,400.8 298.06,400.67 297.73,400.57 297.47,400.5 297.3,400.46 297.2,400.45 288.48,398.96 290,381 Z M 290,381" />
</svg>
